<svg width="13" height="13" viewBox="0 0 13 13" fill="none" xmlns="http://www.w3.org/2000/svg">
<path d="M6.5 12.1875C8.00842 12.1875 9.45506 11.5883 10.5217 10.5217C11.5883 9.45506 12.1875 8.00842 12.1875 6.5C12.1875 4.99158 11.5883 3.54494 10.5217 2.47833C9.45506 1.41172 8.00842 0.8125 6.5 0.8125C4.99158 0.8125 3.54494 1.41172 2.47833 2.47833C1.41172 3.54494 0.8125 4.99158 0.8125 6.5C0.8125 8.00842 1.41172 9.45506 2.47833 10.5217C3.54494 11.5883 4.99158 12.1875 6.5 12.1875ZM6.5 0C8.22391 0 9.87721 0.684819 11.0962 1.90381C12.3152 3.12279 13 4.77609 13 6.5C13 8.22391 12.3152 9.87721 11.0962 11.0962C9.87721 12.3152 8.22391 13 6.5 13C4.77609 13 3.12279 12.3152 1.90381 11.0962C0.68482 9.87721 0 8.22391 0 6.5C0 4.77609 0.68482 3.12279 1.90381 1.90381C3.12279 0.684819 4.77609 0 6.5 0ZM8.22402 4.77598C7.27187 3.82383 5.72813 3.82383 4.77598 4.77598C3.82383 5.72813 3.82383 7.27187 4.77598 8.22402C5.72813 9.17617 7.27187 9.17617 8.22402 8.22402C8.38144 8.0666 8.64043 8.0666 8.79785 8.22402C8.95527 8.38144 8.95527 8.64043 8.79785 8.79785C7.52832 10.0674 5.47168 10.0674 4.20215 8.79785C2.93262 7.52832 2.93262 5.47168 4.20215 4.20215C5.47168 2.93262 7.52832 2.93262 8.79785 4.20215C8.95527 4.35957 8.95527 4.61856 8.79785 4.77598C8.64043 4.9334 8.38144 4.9334 8.22402 4.77598Z" fill="black"/>
</svg>
