<svg width="91" height="31" viewBox="0 0 91 31" fill="none" xmlns="http://www.w3.org/2000/svg">
<path d="M23.2 5.2H25.514C26.372 5.2 26.918 5.408 27.386 5.824C27.828 6.214 28.088 6.786 28.088 7.514V23.686C28.088 24.414 27.828 24.96 27.386 25.376C26.918 25.792 26.372 26 25.514 26H23.2V5.2ZM24.5 24.882H25.514C25.878 24.882 26.242 24.778 26.45 24.544C26.632 24.31 26.762 24.024 26.762 23.686V7.514C26.762 7.15 26.632 6.864 26.45 6.656C26.242 6.422 25.878 6.318 25.514 6.292H24.5V24.882ZM43.3732 7.514V14.04C43.3732 14.768 43.1132 15.34 42.6712 15.73C42.6452 15.756 42.6192 15.782 42.5932 15.808C42.6192 15.834 42.6452 15.86 42.6712 15.886C43.1132 16.276 43.3732 16.848 43.3732 17.576V26H42.0472V17.758C42.0472 17.42 41.9172 17.134 41.7352 16.926C41.5272 16.692 41.2152 16.588 40.8512 16.562H39.7852V26H38.4852V5.2H40.7992C41.6572 5.2 42.2032 5.408 42.6712 5.824C43.1132 6.214 43.3732 6.786 43.3732 7.514ZM40.7992 6.292H39.7852V15.262H40.7992C41.1632 15.236 41.5272 15.132 41.7352 14.898C41.9172 14.69 42.0472 14.404 42.0472 14.04V7.514C42.0472 7.15 41.9172 6.864 41.7352 6.656C41.5272 6.422 41.1632 6.318 40.7992 6.292ZM53.7703 26V5.174H55.0703V26H53.7703ZM69.6354 5.174V6.5H66.7754V15.262H68.6474V16.562H66.7754V26H65.4754V5.174H69.6354ZM80.0242 5.2H84.9122V6.5H83.1182V26H81.8182V6.5H80.0242V5.2Z" fill="#505050"/>
<path d="M9.70859 16.7086C10.0992 16.318 10.0992 15.6836 9.70859 15.293C9.31797 14.9023 8.68359 14.9023 8.29297 15.293L5.00234 18.5867L1.70859 15.2961C1.31797 14.9055 0.683594 14.9055 0.292969 15.2961C-0.0976562 15.6867 -0.0976562 16.3211 0.292969 16.7117L3.58672 20.0023L0.296094 23.2961C-0.0945312 23.6867 -0.0945312 24.3211 0.296094 24.7117C0.686719 25.1023 1.32109 25.1023 1.71172 24.7117L5.00234 21.418L8.29609 24.7086C8.68672 25.0992 9.32109 25.0992 9.71172 24.7086C10.1023 24.318 10.1023 23.6836 9.71172 23.293L6.41797 20.0023L9.70859 16.7086Z" fill="#807F7F"/>
</svg>
